<mxfile host="app.diagrams.net" agent="Mozilla/5.0 (Windows NT 10.0; Win64; x64) AppleWebKit/537.36 (KHTML, like Gecko) Chrome/135.0.0.0 Safari/537.36" version="26.2.10">
  <diagram name="Page-1" id="E76MSoaunveM41I5se0V">
    <mxGraphModel grid="1" page="1" gridSize="10" guides="1" tooltips="1" connect="1" arrows="1" fold="1" pageScale="1" pageWidth="850" pageHeight="1100" math="0" shadow="0">
      <root>
        <mxCell id="0" />
        <mxCell id="1" parent="0" />
        <mxCell id="Tvv6fVAG_jd8c6L9BC14-25" style="edgeStyle=none;rounded=0;orthogonalLoop=1;jettySize=auto;html=1;exitX=0.25;exitY=1;exitDx=0;exitDy=0;entryX=0.5;entryY=0;entryDx=0;entryDy=0;labelBackgroundColor=none;strokeColor=#09555B;fontColor=default;" edge="1" parent="1" source="Tvv6fVAG_jd8c6L9BC14-1" target="Tvv6fVAG_jd8c6L9BC14-4">
          <mxGeometry relative="1" as="geometry" />
        </mxCell>
        <mxCell id="Tvv6fVAG_jd8c6L9BC14-26" style="edgeStyle=none;rounded=0;orthogonalLoop=1;jettySize=auto;html=1;exitX=0.5;exitY=1;exitDx=0;exitDy=0;entryX=0.5;entryY=0;entryDx=0;entryDy=0;labelBackgroundColor=none;strokeColor=#09555B;fontColor=default;" edge="1" parent="1" source="Tvv6fVAG_jd8c6L9BC14-1" target="Tvv6fVAG_jd8c6L9BC14-5">
          <mxGeometry relative="1" as="geometry" />
        </mxCell>
        <mxCell id="Tvv6fVAG_jd8c6L9BC14-27" style="edgeStyle=none;rounded=0;orthogonalLoop=1;jettySize=auto;html=1;exitX=0.25;exitY=0;exitDx=0;exitDy=0;entryX=0.5;entryY=1;entryDx=0;entryDy=0;labelBackgroundColor=none;strokeColor=#09555B;fontColor=default;" edge="1" parent="1" source="Tvv6fVAG_jd8c6L9BC14-1" target="Tvv6fVAG_jd8c6L9BC14-3">
          <mxGeometry relative="1" as="geometry" />
        </mxCell>
        <mxCell id="Tvv6fVAG_jd8c6L9BC14-28" style="edgeStyle=none;rounded=0;orthogonalLoop=1;jettySize=auto;html=1;exitX=1;exitY=0.5;exitDx=0;exitDy=0;entryX=0;entryY=0.5;entryDx=0;entryDy=0;labelBackgroundColor=none;strokeColor=#09555B;fontColor=default;" edge="1" parent="1" source="Tvv6fVAG_jd8c6L9BC14-1" target="Tvv6fVAG_jd8c6L9BC14-6">
          <mxGeometry relative="1" as="geometry" />
        </mxCell>
        <mxCell id="Tvv6fVAG_jd8c6L9BC14-1" value="MAHASISWA" style="rounded=1;whiteSpace=wrap;html=1;labelBackgroundColor=none;fillColor=#FAD9D5;strokeColor=#D0CEE2;fontColor=#1A1A1A;" vertex="1" parent="1">
          <mxGeometry x="170" y="-4200" width="100" height="40" as="geometry" />
        </mxCell>
        <mxCell id="Tvv6fVAG_jd8c6L9BC14-3" value="jurusan" style="ellipse;whiteSpace=wrap;html=1;labelBackgroundColor=none;fillColor=#FAD9D5;strokeColor=#D0CEE2;fontColor=#1A1A1A;" vertex="1" parent="1">
          <mxGeometry x="120" y="-4280" width="80" height="40" as="geometry" />
        </mxCell>
        <mxCell id="Tvv6fVAG_jd8c6L9BC14-4" value="nim" style="ellipse;whiteSpace=wrap;html=1;labelBackgroundColor=none;fillColor=#FAD9D5;strokeColor=#D0CEE2;fontColor=#1A1A1A;" vertex="1" parent="1">
          <mxGeometry x="120" y="-4120" width="80" height="40" as="geometry" />
        </mxCell>
        <mxCell id="Tvv6fVAG_jd8c6L9BC14-5" value="nama" style="ellipse;whiteSpace=wrap;html=1;labelBackgroundColor=none;fillColor=#FAD9D5;strokeColor=#D0CEE2;fontColor=#1A1A1A;" vertex="1" parent="1">
          <mxGeometry x="240" y="-4120" width="80" height="40" as="geometry" />
        </mxCell>
        <mxCell id="Tvv6fVAG_jd8c6L9BC14-29" style="edgeStyle=none;rounded=0;orthogonalLoop=1;jettySize=auto;html=1;exitX=0.5;exitY=1;exitDx=0;exitDy=0;labelBackgroundColor=none;strokeColor=#09555B;fontColor=default;" edge="1" parent="1" source="Tvv6fVAG_jd8c6L9BC14-6" target="Tvv6fVAG_jd8c6L9BC14-13">
          <mxGeometry relative="1" as="geometry" />
        </mxCell>
        <mxCell id="Tvv6fVAG_jd8c6L9BC14-31" style="edgeStyle=none;rounded=0;orthogonalLoop=1;jettySize=auto;html=1;exitX=0.5;exitY=0;exitDx=0;exitDy=0;entryX=0.5;entryY=1;entryDx=0;entryDy=0;labelBackgroundColor=none;strokeColor=#09555B;fontColor=default;" edge="1" parent="1" source="Tvv6fVAG_jd8c6L9BC14-6" target="Tvv6fVAG_jd8c6L9BC14-8">
          <mxGeometry relative="1" as="geometry" />
        </mxCell>
        <mxCell id="Tvv6fVAG_jd8c6L9BC14-32" style="edgeStyle=none;rounded=0;orthogonalLoop=1;jettySize=auto;html=1;exitX=1;exitY=0;exitDx=0;exitDy=0;entryX=0.5;entryY=1;entryDx=0;entryDy=0;labelBackgroundColor=none;strokeColor=#09555B;fontColor=default;" edge="1" parent="1" source="Tvv6fVAG_jd8c6L9BC14-6" target="Tvv6fVAG_jd8c6L9BC14-9">
          <mxGeometry relative="1" as="geometry" />
        </mxCell>
        <mxCell id="Tvv6fVAG_jd8c6L9BC14-33" style="edgeStyle=none;rounded=0;orthogonalLoop=1;jettySize=auto;html=1;exitX=1;exitY=0.5;exitDx=0;exitDy=0;entryX=0;entryY=1;entryDx=0;entryDy=0;labelBackgroundColor=none;strokeColor=#09555B;fontColor=default;" edge="1" parent="1" source="Tvv6fVAG_jd8c6L9BC14-6" target="Tvv6fVAG_jd8c6L9BC14-11">
          <mxGeometry relative="1" as="geometry" />
        </mxCell>
        <mxCell id="Tvv6fVAG_jd8c6L9BC14-34" style="edgeStyle=none;rounded=0;orthogonalLoop=1;jettySize=auto;html=1;exitX=1;exitY=1;exitDx=0;exitDy=0;entryX=0;entryY=0.5;entryDx=0;entryDy=0;labelBackgroundColor=none;strokeColor=#09555B;fontColor=default;" edge="1" parent="1" source="Tvv6fVAG_jd8c6L9BC14-6" target="Tvv6fVAG_jd8c6L9BC14-10">
          <mxGeometry relative="1" as="geometry" />
        </mxCell>
        <mxCell id="Tvv6fVAG_jd8c6L9BC14-35" style="edgeStyle=none;rounded=0;orthogonalLoop=1;jettySize=auto;html=1;exitX=0;exitY=0;exitDx=0;exitDy=0;entryX=0.5;entryY=1;entryDx=0;entryDy=0;labelBackgroundColor=none;strokeColor=#09555B;fontColor=default;" edge="1" parent="1" source="Tvv6fVAG_jd8c6L9BC14-6" target="Tvv6fVAG_jd8c6L9BC14-12">
          <mxGeometry relative="1" as="geometry" />
        </mxCell>
        <mxCell id="Tvv6fVAG_jd8c6L9BC14-6" value="MEMILIH" style="rhombus;whiteSpace=wrap;html=1;labelBackgroundColor=none;fillColor=#FAD9D5;strokeColor=#D0CEE2;fontColor=#1A1A1A;" vertex="1" parent="1">
          <mxGeometry x="400" y="-4217.5" width="80" height="75" as="geometry" />
        </mxCell>
        <mxCell id="Tvv6fVAG_jd8c6L9BC14-8" value="id pesanan" style="ellipse;whiteSpace=wrap;html=1;labelBackgroundColor=none;fillColor=#FAD9D5;strokeColor=#D0CEE2;fontColor=#1A1A1A;" vertex="1" parent="1">
          <mxGeometry x="410" y="-4360" width="80" height="40" as="geometry" />
        </mxCell>
        <mxCell id="Tvv6fVAG_jd8c6L9BC14-9" value="harga" style="ellipse;whiteSpace=wrap;html=1;labelBackgroundColor=none;fillColor=#FAD9D5;strokeColor=#D0CEE2;fontColor=#1A1A1A;" vertex="1" parent="1">
          <mxGeometry x="480" y="-4300" width="80" height="40" as="geometry" />
        </mxCell>
        <mxCell id="Tvv6fVAG_jd8c6L9BC14-10" value="jenis" style="ellipse;whiteSpace=wrap;html=1;labelBackgroundColor=none;fillColor=#FAD9D5;strokeColor=#D0CEE2;fontColor=#1A1A1A;" vertex="1" parent="1">
          <mxGeometry x="560" y="-4142.5" width="80" height="40" as="geometry" />
        </mxCell>
        <mxCell id="Tvv6fVAG_jd8c6L9BC14-11" value="nim" style="ellipse;whiteSpace=wrap;html=1;labelBackgroundColor=none;fillColor=#FAD9D5;strokeColor=#D0CEE2;fontColor=#1A1A1A;" vertex="1" parent="1">
          <mxGeometry x="560" y="-4230" width="80" height="40" as="geometry" />
        </mxCell>
        <mxCell id="Tvv6fVAG_jd8c6L9BC14-12" value="id menu" style="ellipse;whiteSpace=wrap;html=1;labelBackgroundColor=none;fillColor=#FAD9D5;strokeColor=#D0CEE2;fontColor=#1A1A1A;" vertex="1" parent="1">
          <mxGeometry x="320" y="-4320" width="80" height="40" as="geometry" />
        </mxCell>
        <mxCell id="Tvv6fVAG_jd8c6L9BC14-36" style="edgeStyle=none;rounded=0;orthogonalLoop=1;jettySize=auto;html=1;exitX=0;exitY=0.5;exitDx=0;exitDy=0;entryX=0.5;entryY=0;entryDx=0;entryDy=0;labelBackgroundColor=none;strokeColor=#09555B;fontColor=default;" edge="1" parent="1" source="Tvv6fVAG_jd8c6L9BC14-13" target="Tvv6fVAG_jd8c6L9BC14-16">
          <mxGeometry relative="1" as="geometry" />
        </mxCell>
        <mxCell id="Tvv6fVAG_jd8c6L9BC14-37" style="edgeStyle=none;rounded=0;orthogonalLoop=1;jettySize=auto;html=1;exitX=0.5;exitY=1;exitDx=0;exitDy=0;labelBackgroundColor=none;strokeColor=#09555B;fontColor=default;" edge="1" parent="1" source="Tvv6fVAG_jd8c6L9BC14-13" target="Tvv6fVAG_jd8c6L9BC14-17">
          <mxGeometry relative="1" as="geometry" />
        </mxCell>
        <mxCell id="Tvv6fVAG_jd8c6L9BC14-38" style="edgeStyle=none;rounded=0;orthogonalLoop=1;jettySize=auto;html=1;exitX=1;exitY=1;exitDx=0;exitDy=0;entryX=0.5;entryY=0;entryDx=0;entryDy=0;labelBackgroundColor=none;strokeColor=#09555B;fontColor=default;" edge="1" parent="1" source="Tvv6fVAG_jd8c6L9BC14-13" target="Tvv6fVAG_jd8c6L9BC14-15">
          <mxGeometry relative="1" as="geometry" />
        </mxCell>
        <mxCell id="Tvv6fVAG_jd8c6L9BC14-40" style="edgeStyle=none;rounded=0;orthogonalLoop=1;jettySize=auto;html=1;exitX=1;exitY=0.25;exitDx=0;exitDy=0;entryX=0;entryY=0.5;entryDx=0;entryDy=0;labelBackgroundColor=none;strokeColor=#09555B;fontColor=default;" edge="1" parent="1" source="Tvv6fVAG_jd8c6L9BC14-13" target="Tvv6fVAG_jd8c6L9BC14-14">
          <mxGeometry relative="1" as="geometry" />
        </mxCell>
        <mxCell id="Tvv6fVAG_jd8c6L9BC14-13" value="MENU" style="rounded=1;whiteSpace=wrap;html=1;labelBackgroundColor=none;fillColor=#FAD9D5;strokeColor=#D0CEE2;fontColor=#1A1A1A;" vertex="1" parent="1">
          <mxGeometry x="390" y="-4000" width="100" height="40" as="geometry" />
        </mxCell>
        <mxCell id="Tvv6fVAG_jd8c6L9BC14-14" value="id menu" style="ellipse;whiteSpace=wrap;html=1;labelBackgroundColor=none;fillColor=#FAD9D5;strokeColor=#D0CEE2;fontColor=#1A1A1A;" vertex="1" parent="1">
          <mxGeometry x="560" y="-4040" width="80" height="40" as="geometry" />
        </mxCell>
        <mxCell id="Tvv6fVAG_jd8c6L9BC14-15" value="nama" style="ellipse;whiteSpace=wrap;html=1;labelBackgroundColor=none;fillColor=#FAD9D5;strokeColor=#D0CEE2;fontColor=#1A1A1A;" vertex="1" parent="1">
          <mxGeometry x="560" y="-3920" width="80" height="40" as="geometry" />
        </mxCell>
        <mxCell id="Tvv6fVAG_jd8c6L9BC14-16" value="jenis" style="ellipse;whiteSpace=wrap;html=1;labelBackgroundColor=none;fillColor=#FAD9D5;strokeColor=#D0CEE2;fontColor=#1A1A1A;" vertex="1" parent="1">
          <mxGeometry x="280" y="-3920" width="80" height="40" as="geometry" />
        </mxCell>
        <mxCell id="Tvv6fVAG_jd8c6L9BC14-17" value="harga" style="ellipse;whiteSpace=wrap;html=1;labelBackgroundColor=none;fillColor=#FAD9D5;strokeColor=#D0CEE2;fontColor=#1A1A1A;" vertex="1" parent="1">
          <mxGeometry x="440" y="-3880" width="80" height="40" as="geometry" />
        </mxCell>
      </root>
    </mxGraphModel>
  </diagram>
</mxfile>
